# xmcd CD database file
#
# Track frame offsets:
#	150
#	16860
#	43035
#	60630
#	76010
#	102397
#	119507
#	139777
#	163072
#	179017
#	207792
#	222360
#	235780
#
# Disc length: 3406 seconds
#
# Revision: 1
# Processed by: cddbd v1.4PL0 Copyright (c) Steve Scherf et al.
# Submitted via: CDex 1.50
#
DISCID=b20d4c0d
DTITLE=Davell Crawford - Let Them Talk
DYEAR=1995
DGENRE=Jazz
TTITLE0=Something You Got
TTITLE1=A Closer Walk with Thee/Amazing Grace
TTITLE2=I Bowed on My Knees
TTITLE3=She's Got a Wobble
TTITLE4=Still in Love with You
TTITLE5=Keep It Rollin'
TTITLE6=You Gave Me Love
TTITLE7=Can't Nobody Do Me like Jesus
TTITLE8=Gumbo Piano
TTITLE9=Let Them Talk
TTITLE10=No More Heartaches
TTITLE11=Lovey Dovey
TTITLE12=Walk around Heaven
EXTD=YEAR: 1995
EXTT0=
EXTT1=
EXTT2=
EXTT3=
EXTT4=
EXTT5=
EXTT6=
EXTT7=
EXTT8=
EXTT9=
EXTT10=
EXTT11=
EXTT12=
PLAYORDER=
